<svg class="asowp-w-3 asowp-h-3 lg:asowp-w-5 lg:asowp-h-5" viewBox="0 0 24 24" fill="none" xmlns="http://www.w3.org/2000/svg">
    <g id="basil:save-solid">
    <path id="Vector" d="M7.25012 7.6C7.25012 8.566 8.03412 9.35 9.00012 9.35H15.0001C15.4642 9.35 15.9094 9.16563 16.2376 8.83744C16.5657 8.50925 16.7501 8.06413 16.7501 7.6V4.276C16.7501 4.124 16.8741 4 17.0261 4C17.0983 3.99987 17.1696 4.01536 17.2352 4.04539C17.3008 4.07543 17.3591 4.1193 17.4061 4.174L20.3691 7.629C20.7795 8.10775 20.9938 8.72391 20.9691 9.354L20.6271 18.098C20.6018 18.7434 20.3277 19.3539 19.8622 19.8017C19.3967 20.2495 18.776 20.4997 18.1301 20.5H17.7511C17.6185 20.5 17.4913 20.4473 17.3976 20.3536C17.3038 20.2598 17.2511 20.1326 17.2511 20V15C17.2511 14.5359 17.0667 14.0908 16.7386 13.7626C16.4104 13.4344 15.9653 13.25 15.5011 13.25H8.50112C8.27122 13.2499 8.04355 13.295 7.83112 13.3829C7.61868 13.4708 7.42565 13.5997 7.26304 13.7622C7.10043 13.9247 6.97144 14.1177 6.88343 14.3301C6.79542 14.5425 6.75012 14.7701 6.75012 15V20C6.75012 20.1326 6.69744 20.2598 6.60367 20.3536C6.50991 20.4473 6.38273 20.5 6.25012 20.5H6.11312C5.53116 20.5001 4.96913 20.288 4.53231 19.9034C4.09549 19.5189 3.81384 18.9883 3.74012 18.411C3.24634 14.553 3.22518 10.6491 3.67712 6.786L3.73712 6.266C3.81017 5.64178 4.10993 5.06613 4.57948 4.64839C5.04902 4.23065 5.65564 3.99991 6.28412 4H6.75012C6.88273 4 7.00991 4.05268 7.10367 4.14645C7.19744 4.24021 7.25012 4.36739 7.25012 4.5V7.6Z" fill="currentColor"/>
    <path id="Vector_2" d="M8.25 20C8.25 20.1326 8.30268 20.2598 8.39645 20.3536C8.49021 20.4473 8.61739 20.5 8.75 20.5H15.25C15.3826 20.5 15.5098 20.4473 15.6036 20.3536C15.6973 20.2598 15.75 20.1326 15.75 20V15C15.75 14.9337 15.7237 14.8701 15.6768 14.8232C15.6299 14.7763 15.5663 14.75 15.5 14.75H8.5C8.4337 14.75 8.37011 14.7763 8.32322 14.8232C8.27634 14.8701 8.25 14.9337 8.25 15V20ZM15.25 4.5C15.25 4.36739 15.1973 4.24021 15.1036 4.14645C15.0098 4.05268 14.8826 4 14.75 4H9.25C9.11739 4 8.99021 4.05268 8.89645 4.14645C8.80268 4.24021 8.75 4.36739 8.75 4.5V7.6C8.75 7.738 8.862 7.85 9 7.85H15C15.0663 7.85 15.1299 7.82366 15.1768 7.77678C15.2237 7.72989 15.25 7.6663 15.25 7.6V4.5Z" fill="currentColor"/>
    </g>
</svg>
