<svg  viewBox="0 0 30 31" fill="none" xmlns="http://www.w3.org/2000/svg">
    <g id="ion:help-outline">
    <path id="Vector" d="M9.375 9.92969C9.375 9.92969 9.45937 7.93164 11.3402 6.32957C12.457 5.37838 13.7982 5.10289 15 5.08594C16.0975 5.07201 17.0783 5.26395 17.6648 5.55942C18.6674 6.0668 20.625 7.30195 20.625 9.92969C20.625 12.6949 18.9152 13.9482 16.9717 15.3293C15.0281 16.7103 14.5312 18.0648 14.5312 19.6172" stroke="#FEFEFE" stroke-width="3" stroke-miterlimit="10" stroke-linecap="round"/>
    <path id="Vector_2" d="M14.5312 26.1556C15.5668 26.1556 16.4062 25.2882 16.4062 24.2181C16.4062 23.1481 15.5668 22.2806 14.5312 22.2806C13.4957 22.2806 12.6562 23.1481 12.6562 24.2181C12.6562 25.2882 13.4957 26.1556 14.5312 26.1556Z" fill="#FEFEFE"/>
    </g>
</svg>
