<svg class="asowp-w-6 asowp-h-6" viewBox="0 0 46 47" fill="none" xmlns="http://www.w3.org/2000/svg">
    <g id="clarity:text-line" clip-path="url(#clip0_457_214)">
    <path id="Vector" d="M15.5757 11.5411C15.453 11.1569 15.2131 10.8229 14.8912 10.588C14.5693 10.3531 14.1823 10.2296 13.7868 10.2356H13.6335C13.2341 10.226 12.8422 10.3477 12.5156 10.5827C12.189 10.8177 11.9448 11.1537 11.819 11.5411L1.45625 34.6756C1.33756 34.9142 1.27624 35.1782 1.27736 35.4458C1.27736 35.7921 1.41198 36.1242 1.65161 36.369C1.89124 36.6138 2.21625 36.7514 2.55514 36.7514C2.85996 36.7559 3.15822 36.6608 3.40645 36.4799C3.65467 36.2991 3.8399 36.042 3.93514 35.7461L6.59291 29.6753H20.6485L23.3062 35.6678C23.411 35.9742 23.6035 36.2413 23.8587 36.4345C24.1139 36.6278 24.42 36.7381 24.7374 36.7514C25.1034 36.7514 25.4544 36.6028 25.7132 36.3384C25.972 36.074 26.1174 35.7154 26.1174 35.3414C26.102 35.0844 26.0414 34.8323 25.9385 34.5972L15.5757 11.5411ZM7.76847 27.0381L13.6335 13.6953L19.5112 27.0381H7.76847Z" fill="currentColor"/>
    <path id="Vector_2" d="M41.1964 19.2961C40.3913 18.568 39.4525 18.0108 38.4346 17.6566C37.4168 17.3025 36.3403 17.1586 35.2676 17.2333C33.1975 17.226 31.1498 17.6711 29.262 18.5389C29.0441 18.6419 28.859 18.8055 28.7279 19.011C28.5969 19.2165 28.5251 19.4556 28.5209 19.7008C28.5451 20.0156 28.6801 20.3107 28.901 20.5315C29.1218 20.7524 29.4135 20.884 29.722 20.9019C29.8926 20.895 30.0609 20.8597 30.2203 20.7975C31.7112 20.0976 33.333 19.7368 34.9737 19.74C38.4237 19.74 40.4426 21.4764 40.4426 24.8578V25.5105C38.6082 24.9643 36.7054 24.696 34.7948 24.7142C30.1437 24.7142 26.9492 26.8161 26.9492 30.7719V30.8372C26.9492 34.6886 30.3992 36.6861 33.8109 36.6861C35.0886 36.7241 36.3568 36.4502 37.5102 35.8871C38.6635 35.324 39.6688 34.488 40.4426 33.4483V35.1194C40.4426 35.4657 40.5772 35.7978 40.8168 36.0426C41.0564 36.2874 41.3814 36.425 41.7203 36.425C41.8948 36.4253 42.0674 36.3891 42.2277 36.3187C42.3879 36.2482 42.5324 36.145 42.6521 36.0153C42.7718 35.8857 42.8643 35.7324 42.9238 35.5648C42.9833 35.3973 43.0086 35.219 42.9981 35.0411V24.8055C43.074 23.8108 42.9536 22.8105 42.6441 21.8641C42.3346 20.9178 41.8423 20.0445 41.1964 19.2961ZM40.4809 29.3489C40.4809 32.3255 37.7081 34.4275 34.3348 34.4275C31.8559 34.4275 29.722 33.0436 29.722 30.6936V30.6153C29.722 28.2653 31.6387 26.6986 35.0887 26.6986C36.9138 26.7039 38.729 26.972 40.4809 27.495V29.3489Z" fill="currentColor"/>
    </g>
    <defs>
    <clipPath id="clip0_457_214">
    <rect width="46" height="47" fill="white"/>
    </clipPath>
    </defs>
</svg>
