<svg class="asowp-h-1 asowp-w-5" viewBox="0 0 30 30" fill="none" xmlns="http://www.w3.org/2000/svg">
    <g id="simple-line-icons:reload">
    <path id="Vector" d="M14.9789 0C7.48448 0 1.38745 6.09744 1.38745 13.5918C1.38745 20.6362 6.81604 26.5274 13.7967 27.1298L11.1056 28.4938C10.7732 28.6762 10.5754 29.0863 10.7723 29.4102L10.8675 29.6563C11.0653 29.9802 11.4937 30.0951 11.8251 29.9136L16.3166 27.6139C16.3223 27.6102 16.3284 27.6112 16.334 27.6074L16.6354 27.4424C16.8018 27.351 16.912 27.2015 16.956 27.0351C17.002 26.8687 16.9809 26.6835 16.882 26.5223L16.7034 26.2293C16.7006 26.2237 16.695 26.2199 16.6917 26.2148L13.9176 21.8798C13.7207 21.5559 13.2932 21.441 12.96 21.6224L12.742 21.7743C12.4096 21.9557 12.3876 22.4245 12.5845 22.7475L14.2214 25.2867C14.2125 25.2862 14.2045 25.2829 14.196 25.2825C8.06477 24.8803 3.26242 19.7442 3.26242 13.5919C3.26245 7.13109 8.51852 1.875 14.9789 1.875C21.4401 1.875 26.7257 7.13109 26.7257 13.5919C26.7257 17.3119 25.0171 20.7286 22.0382 22.966C21.6244 23.2772 21.5409 23.8651 21.8517 24.279C22.163 24.6938 22.7508 24.7763 23.1647 24.4655C26.6199 21.8701 28.6012 17.9068 28.6012 13.5919C28.6007 6.09753 22.4737 0 14.9789 0Z" fill="white"/>
    </g>
</svg>