<svg class="asowp-w-6 asowp-h-6" viewBox="0 0 27 26" fill="none" xmlns="http://www.w3.org/2000/svg">
<g id="tabler:settings-code">
<g id="Group">
<path id="Vector" d="M12.9388 22.6677C12.6286 22.5764 12.3487 22.4035 12.1282 22.167C11.9077 21.9305 11.7548 21.6391 11.6854 21.3233C11.6162 21.0375 11.4804 20.7721 11.2892 20.5487C11.098 20.3253 10.8568 20.1502 10.5851 20.0376C10.3135 19.9251 10.0191 19.8782 9.7259 19.901C9.43273 19.9237 9.14906 20.0153 8.898 20.1684C7.22642 21.1868 5.31217 19.2736 6.3305 17.6009C6.48336 17.35 6.57485 17.0665 6.59752 16.7735C6.6202 16.4805 6.57343 16.1863 6.46101 15.9148C6.34859 15.6433 6.1737 15.4022 5.95055 15.211C5.72739 15.0198 5.46228 14.884 5.17675 14.8146C3.27442 14.3531 3.27442 11.6469 5.17675 11.1854C5.46253 11.1162 5.72793 10.9804 5.95133 10.7892C6.17474 10.598 6.34984 10.3568 6.46239 10.0851C6.57494 9.81347 6.62176 9.51907 6.59902 9.2259C6.57629 8.93273 6.48466 8.64907 6.33158 8.398C5.31325 6.72642 7.22642 4.81217 8.89908 5.8305C9.98242 6.48917 11.3864 5.90633 11.6854 4.67675C12.1469 2.77442 14.8531 2.77442 15.3146 4.67675C15.3838 4.96253 15.5196 5.22793 15.7108 5.45133C15.902 5.67474 16.1432 5.84984 16.4149 5.96239C16.6865 6.07494 16.9809 6.12176 17.2741 6.09902C17.5673 6.07629 17.8509 5.98466 18.102 5.83158C19.7736 4.81325 21.6878 6.72642 20.6695 8.39908C20.5166 8.65004 20.4252 8.93353 20.4025 9.2265C20.3798 9.51948 20.4266 9.81367 20.539 10.0852C20.6514 10.3567 20.8263 10.5978 21.0495 10.789C21.2726 10.9802 21.5377 11.116 21.8232 11.1854C23.2446 11.5299 23.6042 13.1289 22.9012 14.1072" stroke="white" stroke-width="2" stroke-linecap="round" stroke-linejoin="round"/>
<path id="Vector_2" d="M22.1667 22.75L24.3333 20.5833L22.1667 18.4167M18.9167 18.4167L16.75 20.5833L18.9167 22.75M10.25 13C10.25 13.862 10.5924 14.6886 11.2019 15.2981C11.8114 15.9076 12.638 16.25 13.5 16.25C14.362 16.25 15.1886 15.9076 15.7981 15.2981C16.4076 14.6886 16.75 13.862 16.75 13C16.75 12.138 16.4076 11.3114 15.7981 10.7019C15.1886 10.0924 14.362 9.75 13.5 9.75C12.638 9.75 11.8114 10.0924 11.2019 10.7019C10.5924 11.3114 10.25 12.138 10.25 13Z" stroke="white" stroke-width="2" stroke-linecap="round" stroke-linejoin="round"/>
</g>
</g>
</svg>
