<svg class="asowp-w-6 asowp-h-6" viewBox="0 0 47 41" fill="none" xmlns="http://www.w3.org/2000/svg">
    <g id="fluent:keyboard-layout-resize-24-filled">
    <path id="Vector" d="M41.5083 17.9375C41.8623 17.9375 42.2043 18.0496 42.4711 18.2531C42.7379 18.4566 42.9115 18.7378 42.9596 19.0445L42.9733 19.2187V33.7396C42.9734 34.7135 42.5508 35.6512 41.7908 36.3632C41.0308 37.0751 39.9901 37.5081 38.8791 37.5748L38.5783 37.5833H34.6716C34.3004 37.5832 33.9431 37.4599 33.6719 37.2383C33.4007 37.0167 33.2358 36.7133 33.2105 36.3894C33.1852 36.0655 33.3014 35.7453 33.5356 35.4935C33.7699 35.2417 34.1047 35.077 34.4724 35.0328L34.6716 35.0208H38.5783C38.9323 35.0208 39.2743 34.9087 39.5411 34.7052C39.8079 34.5017 39.9815 34.2206 40.0296 33.9138L40.0433 33.7396V19.2187C40.0433 18.8789 40.1976 18.553 40.4724 18.3128C40.7471 18.0725 41.1197 17.9375 41.5083 17.9375ZM41.5083 3.41666L41.645 3.42178L41.8423 3.45082L41.9751 3.48328L42.0923 3.52257L42.2291 3.58236L42.3892 3.67461L42.5455 3.7942L42.6451 3.88986L42.733 3.99578L42.8307 4.14953L42.8639 4.21274L42.9108 4.32549C42.9323 4.3887 42.9498 4.45532 42.9596 4.52366L42.9733 4.69791V13.2396C42.9732 13.5642 42.8322 13.8767 42.5788 14.1139C42.3254 14.3511 41.9785 14.4953 41.6081 14.5175C41.2378 14.5396 40.8717 14.4379 40.5838 14.2331C40.2958 14.0282 40.1075 13.7354 40.057 13.4138L40.0433 13.2396V7.78999L31.3119 15.4262C31.0501 15.6534 30.7001 15.7858 30.3316 15.7972C29.9631 15.8085 29.6032 15.6979 29.3239 15.4875C29.0445 15.277 28.8662 14.9821 28.8244 14.6617C28.7827 14.3413 28.8807 14.0189 29.0988 13.7589L29.2413 13.6154L37.9688 5.97916H31.7416C31.3876 5.97914 31.0456 5.86702 30.7788 5.66351C30.512 5.46001 30.3384 5.17889 30.2903 4.87216L30.2766 4.69791C30.2766 4.38829 30.4048 4.08916 30.6375 3.85582C30.8702 3.62248 31.1916 3.47072 31.5424 3.42861L31.7416 3.41666H41.5083ZM25.8816 17.9375C26.9953 17.9374 28.0674 18.307 28.8815 18.9717C29.6955 19.6363 30.1906 20.5465 30.2668 21.5182L30.2766 21.7812V33.7396C30.2768 34.7135 29.8541 35.6512 29.0941 36.3632C28.3341 37.0751 27.2935 37.5081 26.1824 37.5748L25.8816 37.5833H8.30162C7.18797 37.5834 6.11579 37.2138 5.30178 36.5492C4.48776 35.8845 3.99261 34.9743 3.91638 34.0027L3.90662 33.7396V21.7812C3.90648 20.8073 4.32911 19.8696 5.0891 19.1577C5.8491 18.4457 6.88977 18.0127 8.0008 17.946L8.30162 17.9375H25.8816ZM20.9983 29.8958H13.1849C12.3841 29.8958 11.7199 30.5279 11.7199 31.1771C11.7199 31.8262 12.2708 32.3627 12.9857 32.4464L13.1849 32.4583H20.9983C21.7991 32.4583 22.4633 31.8262 22.4633 31.1771C22.4633 30.8675 22.3351 30.5683 22.1024 30.335C21.8697 30.1016 21.5483 29.9499 21.1975 29.9078L20.9983 29.8958ZM11.7199 23.0625C11.2019 23.0625 10.7051 23.2425 10.3387 23.5629C9.97241 23.8832 9.76662 24.3177 9.76662 24.7708C9.76662 25.2239 9.97241 25.6584 10.3387 25.9788C10.7051 26.2992 11.2019 26.4792 11.7199 26.4792C12.238 26.4792 12.7348 26.2992 13.1012 25.9788C13.4675 25.6584 13.6733 25.2239 13.6733 24.7708C13.6733 24.3177 13.4675 23.8832 13.1012 23.5629C12.7348 23.2425 12.238 23.0625 11.7199 23.0625ZM22.4633 23.0625C21.9452 23.0625 21.4484 23.2425 21.0821 23.5629C20.7157 23.8832 20.5099 24.3177 20.5099 24.7708C20.5099 25.2239 20.7157 25.6584 21.0821 25.9788C21.4484 26.2992 21.9452 26.4792 22.4633 26.4792C22.9813 26.4792 23.4782 26.2992 23.8445 25.9788C24.2108 25.6584 24.4166 25.2239 24.4166 24.7708C24.4166 24.3177 24.2108 23.8832 23.8445 23.5629C23.4782 23.2425 22.9813 23.0625 22.4633 23.0625ZM17.0916 23.0625C16.5736 23.0625 16.0767 23.2425 15.7104 23.5629C15.3441 23.8832 15.1383 24.3177 15.1383 24.7708C15.1383 25.2239 15.3441 25.6584 15.7104 25.9788C16.0767 26.2992 16.5736 26.4792 17.0916 26.4792C17.6097 26.4792 18.1065 26.2992 18.4728 25.9788C18.8392 25.6584 19.0449 25.2239 19.0449 24.7708C19.0449 24.3177 18.8392 23.8832 18.4728 23.5629C18.1065 23.2425 17.6097 23.0625 17.0916 23.0625ZM24.9049 3.41666C25.2761 3.41676 25.6334 3.54007 25.9046 3.76169C26.1759 3.98331 26.3408 4.28671 26.3661 4.61058C26.3914 4.93445 26.2752 5.25464 26.0409 5.50646C25.8067 5.75828 25.4719 5.92295 25.1042 5.9672L24.9049 5.97916H8.30162C7.9476 5.97917 7.60556 6.0913 7.33876 6.2948C7.07196 6.4983 6.89844 6.77942 6.85029 7.08616L6.83662 7.26041V14.0937C6.8365 14.4184 6.6955 14.7308 6.4421 14.9681C6.18869 15.2053 5.84179 15.3495 5.47147 15.3716C5.10115 15.3937 4.73504 15.2921 4.44711 15.0873C4.15917 14.8824 3.97088 14.5896 3.92029 14.268L3.90662 14.0937V7.26041C3.90648 6.28644 4.32911 5.34875 5.0891 4.63683C5.8491 3.92491 6.88977 3.49186 8.0008 3.4252L8.30162 3.41666H24.9049Z" fill="currentColor"/>
    </g>
</svg>