<svg width="18" height="17" viewBox="0 0 18 17" fill="none" xmlns="http://www.w3.org/2000/svg">
<path d="M16.9583 13.0417C16.9583 12.8675 16.9333 12.7092 16.9083 12.5429L17.6083 11.965C17.7583 11.8383 17.7917 11.6325 17.6917 11.4662L17.2 10.6587C17.1529 10.5792 17.0777 10.5181 16.9877 10.4863C16.8977 10.4544 16.7987 10.4538 16.7083 10.4846L15.825 10.7696C15.5583 10.5558 15.2583 10.3896 14.925 10.2708L14.7417 9.40792C14.722 9.31871 14.6708 9.23861 14.5964 9.18098C14.5221 9.12334 14.4293 9.09167 14.3333 9.09125H13.35C13.15 9.09125 12.9833 9.22583 12.9417 9.40792L12.7583 10.2708C12.425 10.3896 12.125 10.5558 11.8583 10.7696L10.975 10.4846C10.8845 10.4551 10.786 10.4563 10.6963 10.488C10.6067 10.5198 10.5314 10.5801 10.4833 10.6587L9.99167 11.4662C9.89167 11.6325 9.925 11.8383 10.075 11.965L10.775 12.5429C10.75 12.7092 10.725 12.8675 10.725 13.0417C10.725 13.2158 10.75 13.3742 10.775 13.5404L10.075 14.1183C9.925 14.245 9.89167 14.4508 9.99167 14.6171L10.4833 15.4246C10.5833 15.5908 10.7917 15.6621 10.975 15.5987L11.8583 15.3137C12.125 15.5275 12.425 15.6937 12.7583 15.8125L12.9417 16.6754C12.9833 16.8575 13.15 16.9921 13.35 16.9921H14.3333C14.5333 16.9921 14.7 16.8575 14.7417 16.6754L14.925 15.8125C15.2583 15.6937 15.5583 15.5275 15.825 15.3137L16.7083 15.5987C16.9 15.6621 17.1 15.5829 17.2 15.4246L17.6917 14.6171C17.7917 14.4508 17.7583 14.245 17.6083 14.1183L16.9083 13.5404C16.9333 13.3742 16.9583 13.2158 16.9583 13.0417ZM13.8333 14.625C12.9167 14.625 12.1667 13.9125 12.1667 13.0417C12.1667 12.1708 12.9167 11.4583 13.8333 11.4583C14.75 11.4583 15.5 12.1708 15.5 13.0417C15.5 13.9125 14.75 14.625 13.8333 14.625ZM8 3.54167C7.54167 3.54167 7.16667 3.89792 7.16667 4.33333V7.5C7.16667 7.71375 7.25833 7.91167 7.40833 8.06208L9.13333 9.70083L10 8.28375L8.83333 7.17542V4.33333C8.83333 3.89792 8.45833 3.54167 8 3.54167ZM1.55 8.29167C1.00833 8.29167 0.6 8.77458 0.733333 9.27333C1.56667 12.3529 4.5 14.625 8 14.625H8.05833L7.05 12.9704C5.93235 12.7935 4.89297 12.3117 4.05848 11.5836C3.22398 10.8555 2.63039 9.9125 2.35 8.86958C2.30409 8.70203 2.20027 8.55399 2.0552 8.44919C1.91014 8.34439 1.73222 8.28892 1.55 8.29167ZM1.33333 5.91667C0.875 5.91667 0.5 5.56042 0.5 5.125V1.95833C0.5 1.52292 0.875 1.16667 1.33333 1.16667C1.79167 1.16667 2.16667 1.52292 2.16667 1.95833V3.035C3.54167 1.42 5.64167 0.375 8 0.375C9.98912 0.375 11.8968 1.12567 13.3033 2.46186C14.7098 3.79806 15.5 5.61033 15.5 7.5H13.8333C13.8333 4.44417 11.2167 1.95833 8 1.95833C7.06042 1.95958 6.13501 2.17612 5.3023 2.58957C4.46959 3.00302 3.75415 3.60119 3.21667 4.33333H4.66667C5.125 4.33333 5.5 4.68958 5.5 5.125C5.5 5.56042 5.125 5.91667 4.66667 5.91667H1.33333Z" fill="black"/>
</svg>
