<svg class="asowp-w-6 asowp-h-6" viewBox="0 0 40 41" fill="current" xmlns="http://www.w3.org/2000/svg">
    <g id="mdi:material">
    <path id="Vector" d="M4.21671 33.5687L6.45004 34.5254V19.0992L2.40004 29.11C1.71671 30.8525 2.50004 32.8512 4.21671 33.5687ZM36.7167 27.2479L28.45 6.83332C28.2059 6.21413 27.79 5.68187 27.2538 5.30235C26.7177 4.92282 26.0848 4.71268 25.4334 4.69791C25 4.69791 24.55 4.76624 24.1167 4.95416L11.8334 10.1646C11.2405 10.4225 10.7323 10.8492 10.3689 11.3943C10.0056 11.9393 9.80234 12.5797 9.78337 13.2396C9.76671 13.6667 9.85004 14.1621 10 14.6062L18.3334 35.0208C18.8167 36.3533 20.05 37.1391 21.35 37.1562C21.7834 37.1562 22.2167 37.0708 22.6334 36.9L34.9 31.6896C35.7154 31.3473 36.3648 30.6872 36.7055 29.8542C37.0462 29.0213 37.0502 28.0839 36.7167 27.2479ZM13.1334 14.9479C12.6913 14.9479 12.2674 14.7679 11.9549 14.4475C11.6423 14.1272 11.4667 13.6926 11.4667 13.2396C11.4667 12.7865 11.6423 12.352 11.9549 12.0316C12.2674 11.7112 12.6913 11.5312 13.1334 11.5312C14.05 11.5312 14.8 12.3 14.8 13.2396C14.8 14.1792 14.05 14.9479 13.1334 14.9479ZM9.80004 33.7396C9.80004 34.6457 10.1512 35.5148 10.7763 36.1555C11.4015 36.7963 12.2493 37.1562 13.1334 37.1562H15.55L9.80004 22.9087V33.7396Z" fill="currentColor"/>
    </g>
</svg>
