<svg class="asowp-w-6 asowp-h-6" viewBox="0 0 27 26" fill="none" xmlns="http://www.w3.org/2000/svg">
<g id="eva:options-2-outline">
<path id="Vector" d="M21.0834 9.74991C20.4129 9.75179 19.7594 9.96103 19.2124 10.3489C18.6655 10.7368 18.2519 11.2844 18.0284 11.9166H3.75008C3.46276 11.9166 3.18721 12.0307 2.98405 12.2339C2.78088 12.437 2.66675 12.7126 2.66675 12.9999C2.66675 13.2872 2.78088 13.5628 2.98405 13.7659C3.18721 13.9691 3.46276 14.0832 3.75008 14.0832H18.0284C18.2272 14.6454 18.5767 15.142 19.0388 15.5187C19.5009 15.8955 20.0577 16.1379 20.6483 16.2194C21.2389 16.3009 21.8406 16.2183 22.3874 15.9808C22.9343 15.7432 23.4052 15.3598 23.7488 14.8726C24.0923 14.3853 24.2952 13.8129 24.3352 13.218C24.3752 12.6231 24.2508 12.0287 23.9756 11.4998C23.7004 10.9709 23.285 10.5279 22.7749 10.2192C22.2648 9.9106 21.6796 9.74823 21.0834 9.74991ZM21.0834 14.0832C20.8692 14.0832 20.6597 14.0197 20.4815 13.9007C20.3034 13.7816 20.1645 13.6124 20.0825 13.4145C20.0005 13.2165 19.9791 12.9987 20.0209 12.7886C20.0627 12.5784 20.1659 12.3854 20.3174 12.2339C20.4689 12.0824 20.6619 11.9792 20.8721 11.9374C21.0822 11.8956 21.3 11.917 21.498 11.999C21.6959 12.081 21.8651 12.2199 21.9842 12.398C22.1032 12.5762 22.1667 12.7856 22.1667 12.9999C22.1667 13.2872 22.0526 13.5628 21.8494 13.7659C21.6463 13.9691 21.3707 14.0832 21.0834 14.0832ZM3.75008 7.58324H5.02841C5.25614 8.21066 5.67151 8.75274 6.21809 9.13583C6.76467 9.51892 7.41595 9.72442 8.08341 9.72442C8.75088 9.72442 9.40215 9.51892 9.94874 9.13583C10.4953 8.75274 10.9107 8.21066 11.1384 7.58324H23.2501C23.5374 7.58324 23.8129 7.4691 24.0161 7.26594C24.2193 7.06277 24.3334 6.78723 24.3334 6.49991C24.3334 6.21259 24.2193 5.93704 24.0161 5.73388C23.8129 5.53071 23.5374 5.41657 23.2501 5.41657H11.1384C10.9107 4.78916 10.4953 4.24707 9.94874 3.86399C9.40215 3.4809 8.75088 3.27539 8.08341 3.27539C7.41595 3.27539 6.76467 3.4809 6.21809 3.86399C5.67151 4.24707 5.25614 4.78916 5.02841 5.41657H3.75008C3.46276 5.41657 3.18721 5.53071 2.98405 5.73388C2.78088 5.93704 2.66675 6.21259 2.66675 6.49991C2.66675 6.78723 2.78088 7.06277 2.98405 7.26594C3.18721 7.4691 3.46276 7.58324 3.75008 7.58324ZM8.08341 5.41657C8.29768 5.41657 8.50713 5.48011 8.68528 5.59915C8.86344 5.71819 9.00229 5.88738 9.08428 6.08533C9.16628 6.28329 9.18773 6.50111 9.14593 6.71126C9.10413 6.9214 9.00095 7.11443 8.84945 7.26594C8.69794 7.41745 8.50491 7.52062 8.29476 7.56242C8.08462 7.60423 7.86679 7.58277 7.66884 7.50078C7.47089 7.41878 7.30169 7.27993 7.18266 7.10177C7.06362 6.92362 7.00008 6.71417 7.00008 6.49991C7.00008 6.21259 7.11422 5.93704 7.31738 5.73388C7.52055 5.53071 7.7961 5.41657 8.08341 5.41657ZM23.2501 18.4166H15.4717C15.244 17.7892 14.8286 17.2471 14.2821 16.864C13.7355 16.4809 13.0842 16.2754 12.4167 16.2754C11.7493 16.2754 11.098 16.4809 10.5514 16.864C10.0048 17.2471 9.58947 17.7892 9.36175 18.4166H3.75008C3.46276 18.4166 3.18721 18.5307 2.98405 18.7339C2.78088 18.937 2.66675 19.2126 2.66675 19.4999C2.66675 19.7872 2.78088 20.0628 2.98405 20.2659C3.18721 20.4691 3.46276 20.5832 3.75008 20.5832H9.36175C9.58947 21.2107 10.0048 21.7527 10.5514 22.1358C11.098 22.5189 11.7493 22.7244 12.4167 22.7244C13.0842 22.7244 13.7355 22.5189 14.2821 22.1358C14.8286 21.7527 15.244 21.2107 15.4717 20.5832H23.2501C23.5374 20.5832 23.8129 20.4691 24.0161 20.2659C24.2193 20.0628 24.3334 19.7872 24.3334 19.4999C24.3334 19.2126 24.2193 18.937 24.0161 18.7339C23.8129 18.5307 23.5374 18.4166 23.2501 18.4166ZM12.4167 20.5832C12.2025 20.5832 11.993 20.5197 11.8149 20.4007C11.6367 20.2816 11.4979 20.1124 11.4159 19.9145C11.3339 19.7165 11.3124 19.4987 11.3542 19.2886C11.396 19.0784 11.4992 18.8854 11.6507 18.7339C11.8022 18.5824 11.9953 18.4792 12.2054 18.4374C12.4155 18.3956 12.6334 18.417 12.8313 18.499C13.0293 18.581 13.1985 18.7199 13.3175 18.898C13.4365 19.0762 13.5001 19.2856 13.5001 19.4999C13.5001 19.7872 13.3859 20.0628 13.1828 20.2659C12.9796 20.4691 12.7041 20.5832 12.4167 20.5832Z" fill="white"/>
</g>
</svg>
