<svg class="asowp-w-6 asowp-h-6" viewBox="0 0 40 40" fill="none" xmlns="http://www.w3.org/2000/svg">
    <g id="gravity-ui:copy-picture">
    <path id="Vector" fill-rule="evenodd" clip-rule="evenodd" d="M30 6.25H20C19.0054 6.25 18.0516 6.64509 17.3483 7.34835C16.6451 8.05161 16.25 9.00544 16.25 10V12.5H20C21.9891 12.5 23.8968 13.2902 25.3033 14.6967C26.7098 16.1032 27.5 18.0109 27.5 20V23.75H30C30.9946 23.75 31.9484 23.3549 32.6517 22.6517C33.3549 21.9484 33.75 20.9946 33.75 20V10C33.75 9.00544 33.3549 8.05161 32.6517 7.34835C31.9484 6.64509 30.9946 6.25 30 6.25ZM27.5 27.5H30C31.9891 27.5 33.8968 26.7098 35.3033 25.3033C36.7098 23.8968 37.5 21.9891 37.5 20V10C37.5 8.01088 36.7098 6.10322 35.3033 4.6967C33.8968 3.29018 31.9891 2.5 30 2.5H20C18.0109 2.5 16.1032 3.29018 14.6967 4.6967C13.2902 6.10322 12.5 8.01088 12.5 10V12.5H10C8.01088 12.5 6.10322 13.2902 4.6967 14.6967C3.29018 16.1032 2.5 18.0109 2.5 20V30C2.5 31.9891 3.29018 33.8968 4.6967 35.3033C6.10322 36.7098 8.01088 37.5 10 37.5H20C21.9891 37.5 23.8968 36.7098 25.3033 35.3033C26.7098 33.8968 27.5 31.9891 27.5 30V27.5ZM10 16.25H20C20.9946 16.25 21.9484 16.6451 22.6517 17.3483C23.3549 18.0516 23.75 19.0054 23.75 20V25.1025L22.33 23.8025C21.6451 23.177 20.7551 22.8235 19.8277 22.8088C18.9002 22.794 17.9994 23.119 17.295 23.7225L12.9975 27.405L11.4925 26.275C10.8425 25.7881 10.0537 25.5222 9.2416 25.5164C8.42951 25.5105 7.63691 25.765 6.98 26.2425L6.25 26.7725V20C6.25 19.0054 6.64509 18.0516 7.34835 17.3483C8.05161 16.6451 9.00544 16.25 10 16.25ZM6.465 31.2525C6.72388 31.9831 7.20278 32.6155 7.83581 33.0627C8.46885 33.51 9.22491 33.7501 10 33.75H20C20.9633 33.7498 21.8896 33.379 22.5868 32.7143C23.284 32.0497 23.6988 31.1422 23.745 30.18L19.8 26.575C19.7909 26.5673 19.7794 26.563 19.7675 26.563C19.7556 26.563 19.7441 26.5673 19.735 26.575L14.2975 31.235L13.155 32.2125L11.9525 31.3125L9.2425 29.2775C9.23408 29.2716 9.22404 29.2684 9.21375 29.2684C9.20346 29.2684 9.19342 29.2716 9.185 29.2775L6.465 31.2525ZM14.04 21.1525C14.04 21.9177 13.736 22.6515 13.195 23.1925C12.654 23.7335 11.9201 24.0375 11.155 24.0375C10.3899 24.0375 9.65604 23.7335 9.115 23.1925C8.57395 22.6515 8.27 21.9177 8.27 21.1525C8.29209 20.4024 8.6056 19.6904 9.14399 19.1676C9.68239 18.6448 10.4033 18.3524 11.1538 18.3524C11.9042 18.3524 12.6251 18.6448 13.1635 19.1676C13.7019 19.6904 14.0154 20.4024 14.0375 21.1525H14.04Z" fill="currentColor"/>
    </g>
</svg>
