<svg width="32" height="31" viewBox="0 0 32 31" fill="none" xmlns="http://www.w3.org/2000/svg">
<g id="gravity-ui:copy-picture">
<path id="Vector" fill-rule="evenodd" clip-rule="evenodd" d="M24 4.84375H16C15.2044 4.84375 14.4413 5.14994 13.8787 5.69497C13.3161 6.24 13 6.97921 13 7.75V9.6875H16C17.5913 9.6875 19.1174 10.2999 20.2426 11.3899C21.3679 12.48 22 13.9584 22 15.5V18.4062H24C24.7956 18.4062 25.5587 18.1001 26.1213 17.555C26.6839 17.01 27 16.2708 27 15.5V7.75C27 6.97921 26.6839 6.24 26.1213 5.69497C25.5587 5.14994 24.7956 4.84375 24 4.84375ZM22 21.3125H24C25.5913 21.3125 27.1174 20.7001 28.2426 19.6101C29.3679 18.52 30 17.0416 30 15.5V7.75C30 6.20843 29.3679 4.73 28.2426 3.63994C27.1174 2.54989 25.5913 1.9375 24 1.9375H16C14.4087 1.9375 12.8826 2.54989 11.7574 3.63994C10.6321 4.73 10 6.20843 10 7.75V9.6875H8C6.4087 9.6875 4.88258 10.2999 3.75736 11.3899C2.63214 12.48 2 13.9584 2 15.5V23.25C2 24.7916 2.63214 26.27 3.75736 27.3601C4.88258 28.4501 6.4087 29.0625 8 29.0625H16C17.5913 29.0625 19.1174 28.4501 20.2426 27.3601C21.3679 26.27 22 24.7916 22 23.25V21.3125ZM8 12.5938H16C16.7956 12.5938 17.5587 12.8999 18.1213 13.445C18.6839 13.99 19 14.7292 19 15.5V19.4544L17.864 18.4469C17.3161 17.9621 16.6041 17.6882 15.8621 17.6768C15.1202 17.6654 14.3995 17.9172 13.836 18.3849L10.398 21.2389L9.194 20.3631C8.67403 19.9858 8.04295 19.7797 7.39328 19.7752C6.74361 19.7707 6.10953 19.9679 5.584 20.3379L5 20.7487V15.5C5 14.7292 5.31607 13.99 5.87868 13.445C6.44129 12.8999 7.20435 12.5938 8 12.5938ZM5.172 24.2207C5.3791 24.7869 5.76222 25.277 6.26865 25.6236C6.77508 25.9702 7.37993 26.1563 8 26.1562H16C16.7706 26.1561 17.5116 25.8687 18.0694 25.3536C18.6272 24.8385 18.959 24.1352 18.996 23.3895L15.84 20.5956C15.8328 20.5896 15.8235 20.5863 15.814 20.5863C15.8045 20.5863 15.7952 20.5896 15.788 20.5956L11.438 24.2071L10.524 24.9647L9.562 24.2672L7.394 22.6901C7.38726 22.6855 7.37923 22.683 7.371 22.683C7.36277 22.683 7.35474 22.6855 7.348 22.6901L5.172 24.2207ZM11.232 16.3932C11.232 16.9862 10.9888 17.5549 10.556 17.9742C10.1232 18.3935 9.53612 18.6291 8.924 18.6291C8.31188 18.6291 7.72483 18.3935 7.292 17.9742C6.85916 17.5549 6.616 16.9862 6.616 16.3932C6.63367 15.8118 6.88448 15.26 7.3152 14.8549C7.74591 14.4497 8.32264 14.2231 8.923 14.2231C9.52336 14.2231 10.1001 14.4497 10.5308 14.8549C10.9615 15.26 11.2123 15.8118 11.23 16.3932H11.232Z" fill="black"/>
</g>
</svg>
