<svg width="12" height="8" viewBox="0 0 12 8" fill="none" xmlns="http://www.w3.org/2000/svg">
<path fill-rule="evenodd" clip-rule="evenodd" d="M0.440239 1.06506C0.480879 1.02431 0.529157 0.991987 0.582309 0.969932C0.635461 0.947876 0.692442 0.936523 0.749989 0.936523C0.807535 0.936523 0.864516 0.947876 0.917668 0.969932C0.97082 0.991987 1.0191 1.02431 1.05974 1.06506L5.99999 6.00618L10.9402 1.06506C10.9809 1.02438 11.0292 0.992112 11.0824 0.970097C11.1355 0.948083 11.1925 0.936752 11.25 0.936752C11.3075 0.936752 11.3645 0.948083 11.4176 0.970097C11.4708 0.992112 11.5191 1.02438 11.5597 1.06506C11.6004 1.10573 11.6327 1.15402 11.6547 1.20717C11.6767 1.26032 11.688 1.31728 11.688 1.37481C11.688 1.43233 11.6767 1.48929 11.6547 1.54244C11.6327 1.59559 11.6004 1.64388 11.5597 1.68456L6.30974 6.93456C6.2691 6.9753 6.22082 7.00762 6.16767 7.02968C6.11452 7.05173 6.05753 7.06309 5.99999 7.06309C5.94244 7.06309 5.88546 7.05173 5.83231 7.02968C5.77916 7.00762 5.73088 6.9753 5.69024 6.93456L0.440239 1.68456C0.399496 1.64392 0.367171 1.59564 0.345115 1.54248C0.32306 1.48933 0.311707 1.43235 0.311707 1.37481C0.311707 1.31726 0.32306 1.26028 0.345115 1.20713C0.367171 1.15397 0.399496 1.1057 0.440239 1.06506Z" fill="white"/>
</svg>
