<svg viewBox="0 0 56 50" xmlns="http://www.w3.org/2000/svg">
    <path d="m0 7.5556s12-7.5556 28-7.5556 28 7.5556 28 7.5556v34.889s-12 7.5556-28 7.5556-28-7.5556-28-7.5556v-34.889zm3.5 32.84c0.07363 0.0385 0.14958 0.078 0.22785 0.1183 1.2742 0.6564 3.1517 1.5439 5.509 2.4345 4.7297 1.7867 11.301 3.5519 18.763 3.5519s14.033-1.7652 18.763-3.5519c2.3574-0.8906 4.2348-1.7781 5.5091-2.4345 0.0782-0.0403 0.1542-0.0798 0.2278-0.1183v-30.791c-0.0736-0.03849-0.1496-0.07792-0.2278-0.11824-1.2743-0.65643-3.1517-1.5439-5.5091-2.4345-4.7297-1.7868-11.301-3.5519-18.763-3.5519s-14.033 1.7652-18.763 3.5519c-2.3574 0.89057-4.2348 1.778-5.509 2.4345-0.07827 0.04032-0.15422 0.07975-0.22785 0.11824v30.791z" class="fill" fill="currentColor" fill-rule="evenodd">
    </path>
</svg>