<svg viewBox="0 0 56 50" xmlns="http://www.w3.org/2000/svg">
    <path d="m12.997 3.5c-0.2015 0.13866-0.4436 0.31379-0.7173 0.52762-0.9285 0.72534-2.2096 1.8876-3.504 3.573-2.5559 3.328-5.2758 8.8363-5.2758 17.399s2.7199 14.071 5.2758 17.399c1.2944 1.6853 2.5755 2.8476 3.504 3.573 0.2737 0.2138 0.5158 0.3889 0.7173 0.5276h30.006c0.2015-0.1387 0.4436-0.3138 0.7173-0.5276 0.9285-0.7254 2.2096-1.8877 3.504-3.573 2.5559-3.328 5.2758-8.8363 5.2758-17.399s-2.7199-14.071-5.2758-17.399c-1.2944-1.6853-2.5755-2.8476-3.504-3.573-0.2737-0.21383-0.5158-0.38896-0.7173-0.52762h-30.006zm31.003 46.5s12-6.25 12-25-12-25-12-25h-32s-12 6.25-12 25 12 25 12 25h32z" class="fill" fill="currentColor" fill-rule="evenodd">
    </path>
</svg>