<svg width="70" height="70" viewBox="0 0 100 100" fill="none" xmlns="http://www.w3.org/2000/svg" aria-hidden="true" style="display: block;"><defs><linearGradient id="ml-dotted-r9b" x1="0%" y1="0%" x2="100%" y2="100%"><stop offset="0%" stop-color="#20CCF3"></stop><stop offset="40%" stop-color="#62B1F7"></stop><stop offset="70%" stop-color="#B18FFC"></stop><stop offset="100%" stop-color="#D66FEC"></stop></linearGradient><mask id="path-reveal-mask-r9b"><path d="M65 10
   C52 3, 32 5, 24 18
   C14 36, 36 46, 50 56
   C64 66, 70 76, 60 82
   C48 90, 26 88, 18 78" fill="none" stroke="white" stroke-width="10" stroke-linecap="round" stroke-linejoin="round" style="stroke-dasharray: 176.544; stroke-dashoffset: 0; transition: stroke-dashoffset 1200ms ease-out;"></path></mask></defs><path d="M65 10
   C52 3, 32 5, 24 18
   C14 36, 36 46, 50 56
   C64 66, 70 76, 60 82
   C48 90, 26 88, 18 78" fill="none" stroke="#D8D8D8" stroke-width="16" stroke-linecap="round" stroke-linejoin="round"></path><path d="M65 10
   C52 3, 32 5, 24 18
   C14 36, 36 46, 50 56
   C64 66, 70 76, 60 82
   C48 90, 26 88, 18 78" fill="none" stroke="#B0B0B0" stroke-width="2" stroke-linecap="round" stroke-linejoin="round"></path><path d="M65 10
   C52 3, 32 5, 24 18
   C14 36, 36 46, 50 56
   C64 66, 70 76, 60 82
   C48 90, 26 88, 18 78" fill="none" stroke="url(#ml-dotted-r9b)" stroke-width="2.5" stroke-linecap="round" stroke-dasharray="4 4" mask="url(#path-reveal-mask-r9b)" style="filter: drop-shadow(rgba(32, 204, 243, 0.4) 0px 0px 2px);"></path></svg>