<?xml version="1.0" standalone="no"?>
<!DOCTYPE svg PUBLIC "-//W3C//DTD SVG 20010904//EN"
 "http://www.w3.org/TR/2001/REC-SVG-20010904/DTD/svg10.dtd">
<svg version="1.0" xmlns="http://www.w3.org/2000/svg"
 width="371.000000pt" height="371.000000pt" viewBox="0 0 371.000000 371.000000"
 preserveAspectRatio="xMidYMid meet">

<g transform="translate(0.000000,371.000000) scale(0.100000,-0.100000)"
fill="#000000" stroke="none">
<path d="M317 3586 c-12 -122 -91 -196 -208 -196 l-39 0 0 -1535 0 -1535 36 0
c124 0 214 -90 214 -214 l0 -36 1535 0 1535 0 0 39 c0 120 87 210 203 211 l47
0 0 1535 0 1535 -39 0 c-118 0 -211 90 -211 205 l0 45 -1534 0 -1533 0 -6 -54z
m3003 -38 c1 -33 37 -108 68 -141 31 -33 101 -71 150 -82 l32 -7 -2 -1460 -3
-1461 -55 -16 c-79 -22 -152 -96 -177 -180 l-18 -61 -1460 2 -1459 3 -12 41
c-28 97 -88 160 -183 192 l-56 19 0 1458 0 1459 41 12 c99 29 161 88 191 185
l18 59 1463 0 1462 0 0 -22z"/>
</g>
</svg>
