<svg id="egExWKJpQ671" xmlns="http://www.w3.org/2000/svg" xmlns:xlink="http://www.w3.org/1999/xlink" viewBox="0 0 820 420" shape-rendering="geometricPrecision" text-rendering="geometricPrecision"><g transform="matrix(.1 0 0-.1 5.872071 373.761487)"><path d="M317,3586c-12-122-91-196-208-196h-39v-1535-1969.77013h36c124,0,214-90,214-214v-36h1535c940.697921,0,3878.27716,2,5907.55874,2v39c0,120,87,210,203,211h47l-5,1967.77013v1535h-39c-118,0-211,90-211,205v45L1856,3640h-1533l-6-54Zm7370.55874-38c1-33,37-108,68-141s101-71,150-82l32-7-2-1460l2-1893.77013-55-16c-79-22-152-96-177-180l-18-61h-5832.55874l-1459,3-12,41c-28,97-88,160-183,192l-56,19L145,1855v1459l41,12c99,29,161,88,191,185l18,59h1463h5829.55874v-22Z"/></g></svg>
