<svg id="eufsEC5blZj1" xmlns="http://www.w3.org/2000/svg" xmlns:xlink="http://www.w3.org/1999/xlink" viewBox="0 0 425 820" shape-rendering="geometricPrecision" text-rendering="geometricPrecision"><g transform="matrix(.1 0 0-.128928 5.722349 479.102893)"><path d="M316.53537,3586c-11.977427-122-90.82882-196-207.608733-196L70,3390v-1535l2.994356-4170.450504h35.932281c123.766744,0,213.597446-90,213.597446-214v-36h1532.112524c938.928381,0-50.836293-1,1974.628022-1v39c0,120,86.836345,210,202.618138,211h46.911589L4070.809405,1852v1535h-38.926637c-117.778031,0-210.60309,90-210.60309,205v45l-1968.639308,3h-1530.116286l-5.988714-54Zm3434.875985-41c.998119-33,36.9304-108,67.872086-141s100.810009-71,149.717836-82l31.939805-7-1.996238-1460l4.990594-4094.450504-54.89654-16c-78.851394-22-151.714074-96-176.667047-180l-17.96614-61-1899.769104,3-1456.255487,3-11.977427,41c-27.947329,97-87.834464,160-182.65576,192l-55.894659,19L144.858918,1855v1459l40.922875,12c98.813772,29,160.697144,88,190.640712,185l17.96614,59h1460.247962l1896.774748-3v-22Z" transform="translate(-6.62071 0.499935)"/></g></svg>
