<?xml version="1.0" standalone="no"?>
<!DOCTYPE svg PUBLIC "-//W3C//DTD SVG 20010904//EN"
 "http://www.w3.org/TR/2001/REC-SVG-20010904/DTD/svg10.dtd">
<svg version="1.0" xmlns="http://www.w3.org/2000/svg"
 width="366.000000pt" height="363.000000pt" viewBox="0 0 366.000000 363.000000"
 preserveAspectRatio="xMidYMid meet">

<g transform="translate(0.000000,363.000000) scale(0.100000,-0.100000)"
fill="#000000" stroke="none">
<path d="M345 3606 c-147 -37 -257 -138 -305 -281 -20 -60 -20 -79 -18 -1535
l3 -1475 32 -68 c43 -91 125 -176 206 -213 l62 -29 1505 0 1505 0 67 33 c79
39 159 121 203 207 l30 60 0 1495 0 1495 -32 68 c-61 128 -180 222 -312 247
-84 16 -2882 12 -2946 -4z m3004 -161 c61 -34 111 -90 138 -155 17 -43 18
-110 18 -1475 0 -1164 -2 -1439 -13 -1476 -20 -66 -78 -137 -142 -173 l-55
-31 -1465 0 -1465 0 -54 30 c-58 32 -110 89 -138 151 -17 37 -18 117 -21 1274
-1 679 1 1339 5 1466 l8 231 30 48 c38 61 90 103 157 126 51 18 119 18 1498
16 l1445 -2 54 -30z"/>
</g>
</svg>
