<svg xmlns="http://www.w3.org/2000/svg" viewBox="0 0 499 442">
    <path fill="currentColor" fill-rule="evenodd" d="M131.703 402.515a66.347 66.347 0 0 1-6.015 4.728l-13.711 7.354c-25.552 9.957-54.916 2.903-73.104-17.577-22.572-25.412-21.851-64.544 1.639-89.088a66.646 66.646 0 0 1 3.856-3.743 65.606 65.606 0 0 1 3.968-3.232 64.93 64.93 0 0 1 23.12-11.176c23.254-5.978 48.979 1.031 65.742 19.904 24.078 27.109 21.613 68.753-5.495 92.83m292.926-155.602L170.935 382.977c10.69-30.085 4.258-64.093-17.064-88.101-16.794-18.905-40.432-29.485-65.57-29.541L293.647 82.26c9.753 6.709 23.914 13.589 38.396 10.727 11.11-2.2 20.79-9.771 28.764-22.511l.06-.104a32.237 32.237 0 0 1 6.863-8.598c6.448-5.726 14.737-8.598 23.345-8.09 8.607.51 16.5 4.341 22.226 10.788 5.726 6.446 8.598 14.737 8.089 23.344-.508 8.607-4.34 16.5-10.787 22.226a32.048 32.048 0 0 1-11.191 6.483l-.28.117c-14.19 7.162-22.58 16.97-24.945 29.153-2.03 10.465.55 22.829 7.463 35.755 5.16 9.653 10.84 16.169 11.08 16.443l1.39 1.583 51.456-45.392c35.742-31.747 38.993-86.653 7.246-122.395l-2.403-2.705c-31.747-35.742-86.653-38.993-122.4-7.244L34.314 283.593l-9.478 8.452-.111.107c-12.167 12.567-20.23 28.343-23.32 45.624-4.787 26.792 2.793 53.782 20.795 74.053 13.266 14.933 30.678 24.674 50.355 28.17 12.544 2.227 25.307 1.733 37.49-1.399a88.124 88.124 0 0 0 11.3-3.736 87.559 87.559 0 0 0 16.118-8.632L435.16 266.568c19.357-10.383 55.087-39.331 56.598-40.559l6.978-5.665-8.766 1.984c-32.802 7.419-65.02 24.414-65.341 24.585" class="fill">
    </path>
</svg>