<svg viewBox="0 0 50 50" xmlns="http://www.w3.org/2000/svg">
    <path d="m0 3.3333c0-1.841 1.4924-3.3333 3.3333-3.3333h26.667l20 20v26.667c0 1.8409-1.4924 3.3333-3.3333 3.3333h-43.333c-1.841 0-3.3333-1.4924-3.3333-3.3333v-43.333zm48.333 16.667h-12.122c-0.0667 0.1964-0.1346 0.3871-0.2018 0.5756-0.2766 0.7763-0.5397 1.515-0.6458 2.4642h-6.6298c0.093-1.09-0.1026-2.444-0.9831-4.6697-2.0285-5.1275-1.799-12.844 2.2496-13.19v-3.5138h-26.667c-0.92047 0-1.6667 0.74619-1.6667 1.6667v43.333c0 0.9204 0.74619 1.6666 1.6667 1.6666h43.333c0.9204 0 1.6666-0.7462 1.6666-1.6666v-26.667zm-35.208 7.3635c0-6.2262 3.4013-10.896 6.5721-10.896 4.3237 0 4.612 7.9557 2.5366 13.202-0.8805 2.2256-1.0762 3.5797-0.9832 4.6696h-6.6298c-0.106-0.9491-0.3692-1.6879-0.6458-2.4641-0.4102-1.1514-0.8499-2.3855-0.8499-4.5115zm8.8534 9.9734h-7.4912c-0.6007 5.2083 0.3863 7.4945 3.7686 7.4945 2.8249 0 4.3334-2.3811 3.9779-5.9956-0.0561-0.5702-0.1486-1.0585-0.2553-1.4989zm13.518-11.299h-7.4912c-0.1067 0.4404-0.1991 0.9287-0.2552 1.4989-0.3555 3.6145 1.153 5.9955 3.9778 5.9955 3.3824 0 4.3693-2.2862 3.7686-7.4944zm-3.8301-22.014 14.31 14.31h-12.643c-0.9204 0-1.6666-0.7462-1.6666-1.6666v-12.643z" class="fill" clip-rule="evenodd" fill="currentColor" fill-rule="evenodd">
    </path>
</svg>