<svg viewBox="0 0 452 444" xmlns="http://www.w3.org/2000/svg">
    <g fill="currentColor" fill-rule="evenodd">
    <path d="M.664 365.969v31.398H34.44l-29.774 45.7h16.85l31.638-45.7H90.46l-29.775 45.7h16.85l31.638-45.7h37.306l-29.774 45.7h16.85l31.638-45.7h37.306l-29.774 45.7h16.85l31.638-45.7h37.306l-29.775 45.7h16.85l31.638-45.7h37.306l-29.774 45.7h16.85l31.64-45.7h37.304l-29.774 45.7h16.85l31.638-45.7h37.305l-29.773 45.7h16.85l31.638-45.7h6.477v-31.398zM428.55 22.008L379.872.631S311.079 234.434.67 235.934l-.31 48.372s319.38 26.128 428.189-262.298" class="fill">
    </path>
    <path d="M399.642 271.224l17.608-56.173-13.848 4.638s-10.871-35.1-35.387-60.964c0 0-14.17 16.38-34.863 34.104 0 0 17.773 17.69 26.267 45.115l-12.57 6.37 52.793 26.91z" class="fill">
    </path>
    </g>
</svg>