<svg viewBox="0 0 48 48" xmlns="http://www.w3.org/2000/svg">
    <path d="m5 17c-1.1046 0-2 0.8954-2 2s0.89543 2 2 2h4c1.1046 0 2-0.8954 2-2s-0.8954-2-2-2h-4zm4 1h-4c-0.55228 0-1 0.4477-1 1s0.44772 1 1 1h4c0.55228 0 1-0.4477 1-1s-0.44772-1-1-1z" clip-rule="evenodd" fill="#14213D" fill-rule="evenodd">
    </path>
    <path d="m37 19c0-1.1046 0.8954-2 2-2h4c1.1046 0 2 0.8954 2 2s-0.8954 2-2 2h-4c-1.1046 0-2-0.8954-2-2zm2-1h4c0.5523 0 1 0.4477 1 1s-0.4477 1-1 1h-4c-0.5523 0-1-0.4477-1-1s0.4477-1 1-1z" clip-rule="evenodd" fill="#14213D" fill-rule="evenodd">
    </path>
    <path d="m5 27c-1.1046 0-2 0.8954-2 2s0.89543 2 2 2h4c1.1046 0 2-0.8954 2-2s-0.8954-2-2-2h-4zm4 1h-4c-0.55228 0-1 0.4477-1 1s0.44772 1 1 1h4c0.55228 0 1-0.4477 1-1s-0.44772-1-1-1z" clip-rule="evenodd" fill="#14213D" fill-rule="evenodd">
    </path>
    <path d="m37 29c0-1.1046 0.8954-2 2-2h4c1.1046 0 2 0.8954 2 2s-0.8954 2-2 2h-4c-1.1046 0-2-0.8954-2-2zm2-1h4c0.5523 0 1 0.4477 1 1s-0.4477 1-1 1h-4c-0.5523 0-1-0.4477-1-1s0.4477-1 1-1z" clip-rule="evenodd" fill="#14213D" fill-rule="evenodd">
    </path>
    <path d="m4 14c-2.2091 0-4 1.7909-4 4v12c0 2.2091 1.7909 4 4 4h40c2.2091 0 4-1.7909 4-4v-12c0-2.2091-1.7909-4-4-4h-40zm40 1h-40c-1.6568 0-3 1.3431-3 3v12c0 1.6569 1.3432 3 3 3h40c1.6569 0 3-1.3431 3-3v-12c0-1.6569-1.3431-3-3-3z" clip-rule="evenodd" fill="#14213D" fill-rule="evenodd">
    </path>
</svg>