<svg viewBox="0 0 359 374" xmlns="http://www.w3.org/2000/svg">
    <g fill="currentColor" fill-rule="evenodd">
    <path d="M113.688 185.983c-3.648-2.759-9.002-4.7-16.067-5.83-7.069-1.127-11.698-2.33-13.894-3.618-2.197-1.284-3.333-3.302-3.41-6.055-.077-2.75.942-4.893 3.059-6.426 2.117-1.528 4.855-2.429 8.218-2.697 3.363-.266 6.79.046 10.285.938 3.492.89 6.276 2.162 8.352 3.812l5.928-9.133c-3.208-2.34-6.987-4.05-11.336-5.135-4.35-1.082-8.712-1.449-13.086-1.102-6.791.54-12.441 2.693-16.947 6.457-4.509 3.766-6.674 8.79-6.498 15.068.177 6.282 2.332 10.783 6.468 13.504 2.066 1.458 4.422 2.585 7.063 3.38 2.64.797 6.49 1.594 11.553 2.393 5.061.8 8.641 1.845 10.74 3.138 2.097 1.292 3.183 3.25 3.257 5.871.073 2.623-.962 4.817-3.105 6.578-2.144 1.76-5.075 2.786-8.796 3.082-7.444.591-14.712-1.815-21.8-7.224l-7.004 9.22c8.498 6.66 18.1 9.562 28.81 8.711 7.314-.58 13.17-2.897 17.573-6.944 4.401-4.048 6.519-9.035 6.352-14.96-.168-5.925-2.073-10.267-5.716-13.028m18.645-36.816l1.91 67.89 11.556-.918-1.91-67.889zm78.943 28.675l.525 18.646c-4.297 3.133-9.694 4.958-16.19 5.472-6.498.517-12.094-1.228-16.786-5.236-4.694-4.008-7.142-9.62-7.344-16.841-.204-7.22 1.982-13.231 6.559-18.043 4.576-4.808 10.325-7.486 17.247-8.036 3.59-.285 6.753-.098 9.487.56s5.47 2.015 8.214 4.068l5.923-9.232c-6.69-5.18-14.964-7.376-24.823-6.593-9.861.784-18.172 4.818-24.937 12.103-6.765 7.288-10.004 15.98-9.72 26.083.284 10.099 3.929 18.18 10.94 24.243 7.009 6.063 15.575 8.692 25.695 7.888 12.014-.953 21.155-5.216 27.42-12.787l-.652-23.212-11.558.917zm77.078-41.069l1.427 50.7-41.192-47.54-11.557.916 1.91 67.89 11.557-.918-1.393-49.533 40.179 46.45 12.536-.995-1.909-67.889z" class="fill"></path><path d="M207.389 285.236l-8.423.707-1.927.16-7.264.61-3.087.259-7.091.595-3.26.273-5.931.498L29.33 300.17 16.05 82.543l146.835-7.275 7.52-.373 2.853-.141 6.339-.314 4.033-.2 6.145-.304 4.228-.21 4.963-.246 141.177-6.994 7.268 207.005-140.022 11.745zM350.15 55.593l-151.185 7.49V.436h-9.191v63.102l-10.178.504V.436h-9.191v64.062l-8.177.405L5.044 72.69l.03.494L.23 76.938l13.865 228.43 5.478 5.402.039.636 150.793-12.647v74.633h9.19v-70.528l7.749-.65 2.43-.204v71.382h9.19v-77.03l9.08-.76 145.163-12.176 4.929-.414-7.986-227.42z" class="fill">
    </path>
    </g>
</svg>