<svg width="31" height="31" viewBox="0 0 31 31" fill="none" xmlns="http://www.w3.org/2000/svg">
<path d="M18.3203 23.2492H15.5L9.68747 20.0459L2.58911 22.6564L4.5279 26.4952L9.09524 24.588C13.3687 27.1397 15.9695 28.4159 16.8982 28.4159C17.8269 28.4159 21.6664 26.6935 28.4166 23.2492" stroke="black" stroke-width="2" stroke-linecap="round" stroke-linejoin="round"/>
<path d="M18.7241 17.429V14.413C19.4345 14.1179 20.3664 13.6864 20.9018 13.151C21.7147 12.3382 22.2683 11.3025 22.4926 10.1749C22.7168 9.04744 22.6017 7.87874 22.1618 6.81665C21.7219 5.75456 20.9769 4.84678 20.021 4.20809C19.0651 3.56941 17.9414 3.22852 16.7918 3.22852C15.6422 3.22852 14.5184 3.56941 13.5625 4.20809C12.6066 4.84678 11.8616 5.75456 11.4217 6.81665C10.9818 7.87874 10.8667 9.04744 11.0909 10.1749C11.3152 11.3025 11.8688 12.3382 12.6817 13.151C13.2171 13.6864 14.1438 14.1179 14.8543 14.4124C14.8581 14.6287 14.8581 15.6343 14.8543 17.4284L18.7241 17.429Z" stroke="black" stroke-width="2" stroke-linejoin="round"/>
<path d="M7.75008 13.5622L8.39591 12.9163M25.8334 13.5622L25.1876 12.9163M9.68758 3.22884L9.04175 2.58301M23.8959 3.22884L24.5417 2.58301M26.4792 7.74967H25.8334M7.75008 7.74967H7.10425" stroke="black" stroke-width="2" stroke-linecap="round"/>
</svg>
