<svg width="28" height="28" viewBox="0 0 28 28" fill="none" xmlns="http://www.w3.org/2000/svg">
<path d="M26.5 14.5002C26.5 13.7868 25.9404 13.2085 25.25 13.2085C24.5596 13.2085 24 13.7868 24 14.5002H26.5ZM14 4.16683C14.6904 4.16683 15.25 3.58853 15.25 2.87516C15.25 2.16179 14.6904 1.5835 14 1.5835V4.16683ZM23.375 24.8335H4.625V27.4168H23.375V24.8335ZM4 24.1877V4.81266H1.5V24.1877H4ZM24 14.5002V24.1877H26.5V14.5002H24ZM4.625 4.16683H14V1.5835H4.625V4.16683ZM4.625 24.8335C4.27983 24.8335 4 24.5444 4 24.1877H1.5C1.5 25.9711 2.89911 27.4168 4.625 27.4168V24.8335ZM23.375 27.4168C25.1009 27.4168 26.5 25.9711 26.5 24.1877H24C24 24.5444 23.7202 24.8335 23.375 24.8335V27.4168ZM4 4.81266C4 4.45598 4.27982 4.16683 4.625 4.16683V1.5835C2.89911 1.5835 1.5 3.02924 1.5 4.81266H4Z" fill="#016464"/>
<path d="M2.75 21.6045L9.43319 15.2741C9.89932 14.8325 10.6112 14.8203 11.0913 15.2455L19 22.2504" stroke="#016464" stroke-width="4" stroke-linecap="round" stroke-linejoin="round"/>
<path d="M16.5 19.0212L19.4834 15.9383C19.9232 15.4839 20.6196 15.4327 21.1173 15.8184L25.25 19.0212" stroke="#016464" stroke-width="4" stroke-linecap="round" stroke-linejoin="round"/>
<path d="M19 7.396L22.125 10.6252L25.25 7.396" stroke="#016464" stroke-width="4" stroke-linecap="round" stroke-linejoin="round"/>
<path d="M22.125 2.875V10.625" stroke="#016464" stroke-width="4" stroke-linecap="round" stroke-linejoin="round"/>
</svg>
