<svg class="asowp-w-6 asowp-h-6" viewBox="0 0 40 41" fill="none" xmlns="http://www.w3.org/2000/svg">
    <g id="tdesign:fill-color-1">
    <path id="Vector" d="M20.0004 0.0888367L39.9137 20.5L36.6671 23.8278V23.9167H36.5804L24.7137 36.08C23.4635 37.3611 21.7682 38.0807 20.0004 38.0807C18.2326 38.0807 16.5373 37.3611 15.2871 36.08L4.8004 25.3329C4.18131 24.6983 3.69021 23.945 3.35516 23.1159C3.02011 22.2869 2.84766 21.3983 2.84766 20.5009C2.84766 19.6035 3.02011 18.7149 3.35516 17.8858C3.69021 17.0567 4.18131 16.3034 4.8004 15.6688L12.1971 8.08554L7.64373 3.41667L10.0004 1.00109L14.5554 5.66996L20.0004 0.0888367ZM14.5554 10.5028L7.15873 18.0844C6.50873 18.7507 6.18207 19.6253 6.18207 20.5H35.1987L20.0004 4.92L16.9137 8.08554L22.3571 13.6667L20.0004 16.0823L14.5554 10.5028ZM8.13373 23.9167L17.6437 33.6644C18.2688 34.3049 19.1165 34.6648 20.0004 34.6648C20.8843 34.6648 21.732 34.3049 22.3571 33.6644L31.8671 23.9167H8.13373ZM36.2504 31.4145L38.4404 34.2504C39.4087 35.5043 39.4087 37.4074 38.4404 38.6596C38.1824 39.0048 37.8511 39.2852 37.4717 39.4797C37.0922 39.6741 36.6746 39.7775 36.2504 39.782C35.3671 39.782 34.5837 39.3378 34.0604 38.6596C33.0921 37.4074 33.0921 35.5043 34.0604 34.2504L36.2504 31.4145Z" fill="white"/>
    </g>
</svg>
