<svg viewBox="0 0 146 121" xmlns="http://www.w3.org/2000/svg">
    <g fill="none" fill-rule="evenodd">
    <g fill-rule="nonzero" stroke="#14213D" stroke-width="3" transform="translate(2 2)" class="stroke">
    <ellipse cx="33.5" cy="13.5" rx="33.5" ry="13.5"></ellipse>
    <path d="M0 16c6 7.195 17.167 10.793 33.5 10.793S61 23.195 67 16v30.532a2 2 0 0 1-.533 1.36c-6.117 6.6-17.106 9.901-32.967 9.901-15.83 0-26.806-3.13-32.93-9.392h0A2 2 0 0 1 0 47.002V16z"></path></g><path d="M140.403 62.98a19.481 19.481 0 0 1-6.265 12.45l-1.305 1.186-40.796-50.269 1.431-1.038c3.674-2.666 8.374-3.9 13.231-3.475l.09.007c.072.005.143.01.218.018 4.922.514 9.39 2.73 12.594 6.249l.077.068 3.061 3.782-5.17 4.207 11.016 13.61 5.163-4.203 2.413 2.981c3.417 4.221 4.804 8.94 4.242 14.427zm-30.486 6.193L90.134 53.985l10.199-8.298 15.28 18.851-5.696 4.635zM96.747 79.89L76.962 64.702l9.409-7.655 19.783 15.188-9.409 7.655zM83.361 90.78L63.55 75.618l9.652-7.854 19.783 15.188-9.622 7.829zM70.45 101.288l-19.844-14.99c.55-.547 1.036-.988 1.432-1.314l7.747-6.304 19.813 15.163-9.148 7.445zm-14.674 8.58L41.53 99.074a55.486 55.486 0 0 1 5.934-9.235l19.187 14.493c-1.43 1.02-5.182 3.461-10.875 5.534zm-7.452 2.135a764.295 764.295 0 0 1-13.649 2.752 797.894 797.894 0 0 1 4.825-11.296l10.704 8.108c-.624.156-1.25.301-1.88.435zm92.267-67.167l-.144-.176-1.969-2.436-3.243-4.007-6.084 4.95-4.851-6.333 5.917-4.815-2.999-3.706v.001l-3.039-3.75-.068-.087c-3.933-4.859-9.424-7.586-16.79-8.339-6.685-.695-13.219 1.249-18.399 5.475a23.303 23.303 0 0 0-2.825 2.738l-1.599 1.8 12.863 15.87-11.074 9.01-1.167-.896a2.352 2.352 0 0 0-3.303.44 2.367 2.367 0 0 0 .439 3.311l.269.207-9.408 7.656-1.167-.896a2.351 2.351 0 0 0-3.303.44 2.368 2.368 0 0 0 .438 3.31l.27.207-9.659 7.859-.978-.75a2.351 2.351 0 0 0-3.302.445 2.368 2.368 0 0 0 .443 3.31l.073.057-6.863 5.585c-.102.083-.96.791-2.25 2.122l-.602-.454a2.352 2.352 0 0 0-3.299.465 2.368 2.368 0 0 0 .464 3.308l.316.239a58.306 58.306 0 0 0-5.983 9.19l-.164-.125a2.352 2.352 0 0 0-3.3.461 2.368 2.368 0 0 0 .459 3.309l.926.7a815.9 815.9 0 0 0-6.993 16.461L27 121l4.25-.787c.09-.017 9.116-1.691 18.05-3.589a60.668 60.668 0 0 0 5.627-1.48l1.281.971a2.352 2.352 0 0 0 3.3-.46c.514-.681.6-1.55.31-2.29 6.56-2.724 10.238-5.673 10.457-5.85l.283-.231.803.607a2.352 2.352 0 0 0 3.3-.465 2.364 2.364 0 0 0-.34-3.204l9.13-7.43.981.75a2.352 2.352 0 0 0 3.302-.444 2.367 2.367 0 0 0-.443-3.31l-.076-.058 9.616-7.825.976.75a2.352 2.352 0 0 0 3.303-.44 2.366 2.366 0 0 0-.438-3.311l-.079-.06 9.409-7.656.975.75a2.352 2.352 0 0 0 3.303-.44 2.365 2.365 0 0 0-.439-3.312l-.077-.06 4.82-3.922 12.778 15.764.047-.038.141.187 1.786-1.065a26.893 26.893 0 0 0 3.418-2.355c5.189-4.216 8.421-10.236 9.102-16.955.714-6.884-1.255-13.952-5.265-18.906z" fill="#000" class="fill">
    </path>
    </g>
</svg>