<svg fill="none" viewBox="0 0 50 50" xmlns="http://www.w3.org/2000/svg">
    <path d="m7 15v4c-3.3137 0-6 2.6863-6 6v11c0 3.3137 2.6863 6 6 6h8v3h-3v2h-2v2h12v-2h-2v-2h-3v-3h9c1.6568 0 3-1.3431 3-3s-1.3432-3-3-3h-9v-3h2c1.1046 0 2-0.8954 2-2h28v-2h-38v-4h38v-2h-20.171c0.1105-0.3128 0.1707-0.6494 0.1707-1 0-1.6569-1.3431-3-3-3h-1v-4l-2.6612-12.419c-0.1976-0.92214-1.0126-1.5809-1.9556-1.5809h-3.3832v11c0 0.5523-0.4477 1-1 1s-1-0.4477-1-1v-11h-3.3832c-0.943 0-1.758 0.6588-1.9556 1.5809l-2.6612 12.419zm16 4v-3.7881l-2.6168-12.212h-1.3832v9c0 1.6569-1.3431 3-3 3s-3-1.3431-3-3v-9h-1.3832l-2.6168 12.212v3.7881h14zm3 4c0.5523 0 1-0.4477 1-1s-0.4477-1-1-1h-19c-2.2091 0-4 1.7909-4 4v11c0 2.2091 1.7909 4 4 4h19c0.5523 0 1-0.4477 1-1s-0.4477-1-1-1h-19c-1.1046 0-2-0.8954-2-2v-11c0-1.1046 0.89543-2 2-2h19zm-11 13v-3h-2c-1.1046 0-2-0.8954-2-2h-2v-6h-1c-0.55228 0-1 0.4477-1 1v9c0 0.5523 0.44772 1 1 1h7z" clip-rule="evenodd" fill="#14213D" fill-rule="evenodd">
    </path>
</svg>