<svg xmlns="http://www.w3.org/2000/svg" viewBox="0 0 234 366"><g fill="none" fill-rule="evenodd" stroke="currentColor" stroke-width="10"><path d="M207.343 344.154L10.305 240.856c.627-10.956 1.967-18.441 4.021-22.456 2.054-4.015 7.416-8.506 16.085-13.474l197.038 89.825c2.068 12.882 2.068 21.864 0 26.947-2.07 5.083-8.771 12.569-20.106 22.456z" class="stroke"></path><path d="M226.232 291.557c-9.965 6.772-16.116 12.773-18.456 18.001-2.339 5.229-3.57 15.73-3.69 31.502M15.84 214.208l196.55 92.819m-85.659 36.492l21.021 17.084 39.316-22.685-26.621-14.955-33.716 20.556zM6.99 274.368l14.89 11.633 29.746-16.877L32.666 259 6.989 274.368zm22.693-72.536V.725m196.549 290.832V105.919" class="stroke"></path></g></svg>