<svg xmlns="http://www.w3.org/2000/svg" viewBox="0 0 344 258">
    <g fill="none" fill-rule="evenodd" stroke="currentColor" transform="translate(-13 -140)">
        <path stroke-width="8" d="M286 243.545c0-24.752-20.862-43.272-55.208-43.272-34.346 0-52.792 18.52-52.792 43.272 0 13.124 30.068 26.656 60 25.455 26.523-1.064 48-13.826 48-25.455z" class="stroke">
        </path>
        <path stroke-width="13" d="M310.175 375.912c9.777.45 17.709-.906 23.843-3.951 5.374-2.668 8.335-7.705 8.96-16.03l6.194-175.945.02-.205c1.087-10.993.613-17.842-.396-19.203a13.206 13.206 0 0 0-.142-.188c-3.161-4.11-8.69-6.246-16.091-6.878a61.906 61.906 0 0 0-4.323-.205c-.6-.01-2.922-.023-3.433-.036-178.312-4.555-272.992-6.614-281.75-6.146-4.266.228-11.935 7.054-16.442 15.72-4.836 9.3-4.675 17.18.514 21.406 11.503 9.37 106.358 73.61 283.046 191.661z" class="stroke">
        </path>
        <ellipse cx="230.792" cy="223.455" stroke-width="15" rx="62.189" ry="44.818" class="stroke">
        </ellipse>
        <path stroke-width="11" d="M340.286 372.864L39.59 149.331c-4.87 2.034-12.958 11.466-18.9 23.285-4.391 8.737.732 25.029 8.563 31.408 11.573 9.426 102.632 72.053 272.047 187.081 10.467 2.22 18.727 1.694 24.878-1.36 5.45-2.705 10.192-8.268 14.108-16.88z" class="stroke">
        </path>
        <g transform="translate(304.037 166.273)">
            <ellipse cx="15.202" cy="13.909" stroke-width="8" rx="15.202" ry="13.909" class="stroke">
            </ellipse>
            <path stroke-width="6" d="M15.194 27.818c4.651 0 15.698-4.193 15.193-9.273-.406-4.084-5.537-9.272-13.817-9.272-8.281 0-13.354 5.266-13.806 9.272-.578 5.127 7.72 9.273 12.43 9.273z" class="stroke">
            </path>
        </g>
        <g transform="translate(304.037 339.364)">
            <ellipse cx="15.202" cy="13.909" stroke-width="8" rx="15.202" ry="13.909" class="stroke">
            </ellipse>
            <path stroke-width="6" d="M15.202 27.818c4.653 0 15.707-4.193 15.202-9.273-.407-4.084-5.54-9.272-13.826-9.272-8.286 0-13.362 5.266-13.814 9.272-.578 5.127 7.725 9.273 12.438 9.273z" class="stroke">
            </path>
        </g>
        <g transform="translate(46.988 161.727)">
            <ellipse cx="15.202" cy="13.909" stroke-width="8" rx="15.202" ry="13.909" class="stroke">
            </ellipse>
            <path stroke-width="6" d="M15.202 27.818c4.653 0 15.707-4.193 15.202-9.273-.407-4.084-5.54-9.272-13.826-9.272-8.286 0-13.362 5.266-13.814 9.272-.578 5.127 7.725 9.273 12.438 9.273z" class="stroke">
            </path>
        </g>
    </g>
</svg>