<svg fill="none" viewBox="0 0 300 276" xmlns="http://www.w3.org/2000/svg">
    <path d="m164.84 2.2887c-1.852-0.59124-3.75-1.0798-5.688-1.4589-2.061-0.40329-4.168-0.68264-6.312-0.82985v135.1h-5.688v-135.1c-2.144 0.14721-4.251 0.42656-6.312 0.82985-1.938 0.37906-3.836 0.86762-5.688 1.4589-20.264 6.4722-34.919 25.25-34.919 47.405l-6.0427 106.04c-1.0093 38.589-28.653 46.724-53.731 54.103-21.143 6.222-40.463 11.907-40.463 34.853v31.313h300v-31.313c0-23.017-19.77-29.271-41.198-36.049-24.907-7.878-52.053-16.465-52.996-52.907l-6.043-106.04c0-22.156-14.655-40.933-34.919-47.405zm28.971 153.95-6.052-106.2v-0.3417c0-15.36-9.367-28.712-22.919-34.604v132.01h-29.688v-132.01c-13.552 5.8923-22.919 19.244-22.919 34.604v0.3417l-6.052 106.2c-0.584 20.71-7.9579 35.261-19.619 45.401-11.031 9.592-24.992 14.367-36.68 17.916-2.284 0.693-4.4636 1.338-6.5434 1.953-9.5366 2.821-16.976 5.021-22.779 8.452-3.1877 1.884-5.1699 3.784-6.4087 5.771-1.1878 1.905-2.1543 4.625-2.1543 8.959v19.313h276v-19.313c0-4.261-0.958-7.031-2.196-9.043-1.292-2.1-3.349-4.111-6.587-6.114-6.009-3.716-13.818-6.198-23.746-9.353-1.797-0.571-3.664-1.164-5.602-1.791-11.63-3.76-25.479-8.682-36.408-18.037-11.582-9.914-19.081-24.04-19.646-44.114z" clip-rule="evenodd" fill="#14213D" class="fill" fill-rule="evenodd">
    </path>
</svg>