<svg fill="none" viewBox="0 0 48 48" xmlns="http://www.w3.org/2000/svg">
    <path d="m9 15c0-8.5523 6.4477-15 15-15s15 6.4477 15 15c0 7.6608-5.2035 12.74-9.4331 16.869-0.468 0.4569-0.924 0.902-1.3598 1.3378l-1.4142-1.4142c0.4474-0.4474 0.9037-0.8953 1.3631-1.3461 4.29-4.2104 8.844-8.6798 8.844-15.447 0-7.4477-5.5523-13-13-13s-13 5.5523-13 13c0 6.4315 4.5469 10.162 9.5735 13.681 0.4071 0.285 0.8183 0.5692 1.23 0.8538 2.0655 1.4279 4.1415 2.8631 5.7665 4.4339 1.9748 1.9089 3.43 4.1517 3.43 7.0315 0 2.2714-0.8617 4.0484-2.2106 5.2474-1.3306 1.1827-3.0763 1.7526-4.7894 1.7526s-3.4588-0.5699-4.7894-1.7526c-1.3489-1.199-2.2106-2.976-2.2106-5.2474 0-1.6716 0.5464-3.6765 1.0513-5.1912 0.2576-0.7729 0.5148-1.448 0.7077-1.9302 0.0966-0.2414 0.1774-0.4353 0.2345-0.5699 0.0285-0.0673 0.0512-0.1199 0.067-0.1562l0.0184-0.042 5e-3 -0.0116 2e-3 -0.0044s3e-4 -6e-4 0.9141 0.4055 0.9139 0.406 0.9139 0.406l-7e-4 0.0016-0.0035 0.0079-0.0151 0.0345c-0.0135 0.0311-0.0338 0.0782-0.06 0.1398-0.0522 0.1232-0.1277 0.3043-0.2186 0.5316-0.1821 0.4553-0.4249 1.0927-0.6673 1.8198-0.4951 1.4853-0.9487 3.2304-0.9487 4.5588 0 1.7286 0.6383 2.9516 1.5394 3.7526 0.9194 0.8173 2.1737 1.2474 3.4606 1.2474s2.5412-0.4301 3.4606-1.2474c0.9011-0.801 1.5394-2.024 1.5394-3.7526 0-2.1202-1.0448-3.8774-2.82-5.5935-1.4958-1.4459-3.4063-2.7678-5.4715-4.1968-0.4216-0.2917-0.8497-0.5879-1.282-0.8905-4.9734-3.4813-10.426-7.7507-10.426-15.319z" clip-rule="evenodd" fill="#14213D" fill-rule="evenodd">
    </path>
</svg>