<svg class="asowp-w-6 asowp-h-6" viewBox="0 0 40 40" fill="none" xmlns="http://www.w3.org/2000/svg">
    <g id="uil:screw">
    <path id="Vector" d="M36.183 16.8667L23.133 3.81666C22.9138 3.59622 22.6374 3.44147 22.3349 3.36988C22.0324 3.29829 21.716 3.31272 21.4212 3.41153C21.1265 3.51035 20.8653 3.68962 20.6671 3.92908C20.4689 4.16855 20.3417 4.45867 20.2997 4.76666L19.083 13.3333L15.7497 16.6667L15.1997 16.35C14.8408 16.1755 14.4313 16.1356 14.0455 16.2374C13.6597 16.3393 13.3232 16.5762 13.0972 16.905C12.8713 17.2339 12.7708 17.6329 12.8141 18.0296C12.8573 18.4263 13.0415 18.7942 13.333 19.0667L11.4163 21.0167L10.8663 20.7C10.5084 20.5356 10.1038 20.5033 9.72429 20.6089C9.3448 20.7144 9.01495 20.9509 8.79324 21.2765C8.57153 21.6021 8.4723 21.9956 8.51314 22.3874C8.55398 22.7792 8.73225 23.1438 9.01634 23.4167L7.06634 25.35L6.53301 25C6.34278 24.8898 6.13264 24.8183 5.91468 24.7897C5.69671 24.761 5.47524 24.7758 5.263 24.8331C5.05077 24.8904 4.85197 24.9892 4.67806 25.1237C4.50415 25.2581 4.35856 25.4257 4.24967 25.6167C4.06145 25.9599 4.00005 26.3584 4.07623 26.7424C4.15242 27.1264 4.36133 27.4713 4.66634 27.7167L3.81634 28.5667C3.662 28.7231 3.5427 28.9106 3.46634 29.1167C3.38094 29.317 3.33564 29.5322 3.33301 29.75V35C3.33301 35.442 3.5086 35.8659 3.82116 36.1785C4.13372 36.4911 4.55765 36.6667 4.99967 36.6667H10.2163C10.4341 36.664 10.6493 36.6187 10.8497 36.5333C11.0557 36.457 11.2432 36.3377 11.3997 36.1833L14.233 33.3333L14.783 33.65C14.9722 33.7609 15.1815 33.8333 15.3988 33.8632C15.6161 33.893 15.8371 33.8797 16.0492 33.824C16.2613 33.7682 16.4604 33.6712 16.6349 33.5384C16.8095 33.4055 16.9561 33.2396 17.0663 33.05C17.2609 32.7069 17.3275 32.3059 17.2543 31.9184C17.181 31.5308 16.9727 31.1818 16.6663 30.9333L18.6163 29L19.1663 29.3167C19.4154 29.4578 19.6967 29.5325 19.983 29.5333C20.302 29.5046 20.606 29.3845 20.8586 29.1875C21.1111 28.9904 21.3016 28.7248 21.4071 28.4223C21.5126 28.1199 21.5287 27.7934 21.4535 27.4821C21.3783 27.1707 21.2149 26.8876 20.983 26.6667L22.933 24.7333L23.483 25.05C23.7321 25.1912 24.0134 25.2658 24.2997 25.2667C24.64 25.2606 24.9704 25.1504 25.2462 24.951C25.5221 24.7516 25.7303 24.4725 25.8429 24.1512C25.9554 23.83 25.9669 23.4819 25.8757 23.154C25.7846 22.826 25.5952 22.5338 25.333 22.3167L26.6497 21L35.233 19.7833C35.5415 19.7395 35.8315 19.6101 36.0701 19.4097C36.3087 19.2094 36.4864 18.9462 36.583 18.65C36.6973 18.3461 36.7203 18.0154 36.6492 17.6986C36.5782 17.3818 36.4161 17.0926 36.183 16.8667ZM9.53301 33.3333H6.66634V30.4667L7.61634 29.5167L11.2497 31.6667L9.53301 33.3333ZM13.683 29.1667L9.99967 27.0833L11.8997 25.1833L15.5163 27.2667L13.683 29.1667ZM18.033 24.8333L14.3997 22.7333L16.3163 20.8333L19.9997 22.9167L18.033 24.8333ZM22.383 20.4833L18.7497 18.3333L20.6497 16.4333L23.5163 19.3L22.383 20.4833ZM26.4663 17.5833L22.4163 13.5333L23.133 8.53333L31.4663 16.8667L26.4663 17.5833Z" fill="currentColor"/>
    </g>
</svg>
