<svg width="52" height="37" viewBox="0 0 52 37" fill="none" xmlns="http://www.w3.org/2000/svg">
<rect width="52" height="37" fill="#F3F3F3"/>
<g clip-path="url(#clip0_1185_6105)">
<path d="M33.778 11.2222H18.2224C17.9278 11.2222 17.6451 11.3392 17.4368 11.5476C17.2284 11.756 17.1113 12.0386 17.1113 12.3333V25.6666C17.1113 25.9613 17.2284 26.2439 17.4368 26.4523C17.6451 26.6607 17.9278 26.7777 18.2224 26.7777H33.778C34.0727 26.7777 34.3553 26.6607 34.5637 26.4523C34.772 26.2439 34.8891 25.9613 34.8891 25.6666V12.3333C34.8891 12.0386 34.772 11.756 34.5637 11.5476C34.3553 11.3392 34.0727 11.2222 33.778 11.2222ZM18.2224 25.6666V12.3333H33.778V25.6666H18.2224Z" fill="black"/>
<path d="M20.9557 16.7777C21.2854 16.7777 21.6076 16.6799 21.8817 16.4968C22.1558 16.3137 22.3694 16.0534 22.4955 15.7488C22.6217 15.4443 22.6547 15.1092 22.5904 14.7859C22.5261 14.4626 22.3673 14.1656 22.1342 13.9325C21.9012 13.6994 21.6042 13.5407 21.2809 13.4764C20.9576 13.4121 20.6225 13.4451 20.3179 13.5712C20.0134 13.6974 19.7531 13.911 19.5699 14.1851C19.3868 14.4591 19.2891 14.7814 19.2891 15.111C19.2891 15.553 19.4647 15.977 19.7772 16.2895C20.0898 16.6021 20.5137 16.7777 20.9557 16.7777ZM20.9557 14.2221C21.1318 14.221 21.3042 14.2722 21.4511 14.3692C21.598 14.4662 21.7128 14.6047 21.7809 14.767C21.849 14.9293 21.8674 15.1082 21.8338 15.281C21.8001 15.4538 21.7159 15.6127 21.5918 15.7376C21.4677 15.8624 21.3093 15.9476 21.1368 15.9824C20.9642 16.0171 20.7852 15.9999 20.6224 15.9327C20.4597 15.8656 20.3205 15.7517 20.2226 15.6054C20.1247 15.4591 20.0724 15.287 20.0724 15.111C20.0739 14.8772 20.1674 14.6533 20.3327 14.488C20.4981 14.3227 20.7219 14.2291 20.9557 14.2277V14.2221Z" fill="black"/>
<path d="M28.6557 17.539L25.6557 20.539L23.4335 18.3168C23.3294 18.2133 23.1886 18.1552 23.0418 18.1552C22.8951 18.1552 22.7543 18.2133 22.6502 18.3168L19.2891 21.7223V23.2945L23.0613 19.5223L24.8891 21.3223L22.8057 23.4057H24.3335L29.028 18.7112L32.6668 22.3334V20.7668L29.4391 17.539C29.335 17.4355 29.1942 17.3774 29.0474 17.3774C28.9006 17.3774 28.7598 17.4355 28.6557 17.539Z" fill="black"/>
</g>
<defs>
<clipPath id="clip0_1185_6105">
<rect width="20" height="20" fill="white" transform="translate(16 9)"/>
</clipPath>
</defs>
</svg>
