<svg viewBox="0 0 24 24" fill="none" xmlns="http://www.w3.org/2000/svg">
    <g id="mingcute:file-import-line" clip-path="url(#clip0_26_887)">
    <g id="Group">
    <path id="Vector" fill-rule="evenodd" clip-rule="evenodd" d="M13.586 2C14.0556 2.00011 14.5101 2.16543 14.87 2.467L15 2.586L19.414 7C19.746 7.33202 19.9506 7.77028 19.992 8.238L20 8.414V20C20.0002 20.5046 19.8096 20.9906 19.4665 21.3605C19.1234 21.7305 18.6532 21.9572 18.15 21.995L18 22H12V20H18V10H13.5C13.1271 9.99998 12.7676 9.86108 12.4916 9.61038C12.2156 9.35968 12.0428 9.01516 12.007 8.644L12 8.5V4H6V12H4V4C3.99984 3.49542 4.19041 3.00943 4.5335 2.63945C4.87659 2.26947 5.34684 2.04284 5.85 2.005L6 2H13.586ZM7.707 14.465L10.536 17.293C10.7235 17.4805 10.8288 17.7348 10.8288 18C10.8288 18.2652 10.7235 18.5195 10.536 18.707L7.707 21.535C7.61475 21.6305 7.50441 21.7067 7.3824 21.7591C7.2604 21.8115 7.12918 21.8391 6.9964 21.8403C6.86362 21.8414 6.73194 21.8161 6.60905 21.7658C6.48615 21.7155 6.3745 21.6413 6.2806 21.5474C6.18671 21.4535 6.11246 21.3419 6.06218 21.219C6.0119 21.0961 5.9866 20.9644 5.98775 20.8316C5.9889 20.6988 6.01649 20.5676 6.0689 20.4456C6.12131 20.3236 6.19749 20.2132 6.293 20.121L7.414 19H3C2.73478 19 2.48043 18.8946 2.29289 18.7071C2.10536 18.5196 2 18.2652 2 18C2 17.7348 2.10536 17.4804 2.29289 17.2929C2.48043 17.1054 2.73478 17 3 17H7.414L6.293 15.879C6.20009 15.7862 6.12638 15.6759 6.07607 15.5546C6.02576 15.4333 5.99984 15.3032 5.9998 15.1719C5.9997 14.9066 6.10499 14.6521 6.2925 14.4645C6.48001 14.2769 6.73438 14.1714 6.99965 14.1713C7.131 14.1713 7.26107 14.1971 7.38243 14.2473C7.5038 14.2975 7.61409 14.3712 7.707 14.464V14.465ZM14 4.414V8H17.586L14 4.414Z" fill="currentColor"/>
    </g>
    </g>
    <defs>
    <clipPath id="clip0_26_887">
    <rect width="24" height="24" fill="white"/>
    </clipPath>
    </defs>
</svg>