<svg class="asowp-w-6 asowp-h-6" viewBox="0 0 26 27" fill="none" xmlns="http://www.w3.org/2000/svg">
<g id="envelope">
<path id="Vector" d="M0 6.95508C0 6.09312 0.34241 5.26647 0.951903 4.65698C1.5614 4.04749 2.38805 3.70508 3.25 3.70508H22.75C23.612 3.70508 24.4386 4.04749 25.0481 4.65698C25.6576 5.26647 26 6.09312 26 6.95508V19.9551C26 20.817 25.6576 21.6437 25.0481 22.2532C24.4386 22.8627 23.612 23.2051 22.75 23.2051H3.25C2.38805 23.2051 1.5614 22.8627 0.951903 22.2532C0.34241 21.6437 0 20.817 0 19.9551V6.95508ZM3.25 5.33008C2.81902 5.33008 2.4057 5.50128 2.10095 5.80603C1.7962 6.11078 1.625 6.5241 1.625 6.95508V7.3077L13 14.1327L24.375 7.3077V6.95508C24.375 6.5241 24.2038 6.11078 23.899 5.80603C23.5943 5.50128 23.181 5.33008 22.75 5.33008H3.25ZM24.375 9.20245L16.7245 13.7931L24.375 18.5007V9.20245ZM24.3197 20.376L15.1548 14.7356L13 16.0275L10.8452 14.7356L1.68025 20.3743C1.77259 20.7201 1.97651 21.0258 2.26036 21.2438C2.5442 21.4618 2.89209 21.58 3.25 21.5801H22.75C23.1077 21.5801 23.4554 21.4621 23.7392 21.2444C24.0231 21.0267 24.2271 20.7214 24.3197 20.376ZM1.625 18.5007L9.2755 13.7931L1.625 9.20245V18.5007Z" fill="white"/>
</g>
</svg>
