<svg class="asowp-w-6 asowp-h-6" viewBox="0 0 50 50" fill="none" xmlns="http://www.w3.org/2000/svg">
    <g id="fluent-mdl2:product-release">
    <path id="Vector" d="M21.875 37.5244V22.8516L6.25 15.0391V36.5234L19.5312 43.1885L18.7744 46.2891L3.125 38.4766V11.5234L23.4375 1.3916L43.75 11.5234V18.1152C42.6107 18.2943 41.569 18.6605 40.625 19.2139V15.0391L25 22.8516V34.3994L21.875 37.5244ZM18.4082 7.37305L32.666 15.5273L38.6963 12.5L23.4375 4.8584L18.4082 7.37305ZM23.4375 20.1416L29.2969 17.2119L15.0391 9.05762L8.17871 12.5L23.4375 20.1416ZM45.1172 21.875C45.8008 21.875 46.4355 21.9971 47.0215 22.2412C47.6074 22.4854 48.1283 22.819 48.584 23.2422C49.0397 23.6654 49.3815 24.1781 49.6094 24.7803C49.8372 25.3825 49.9674 26.0254 50 26.709C50 27.3438 49.8779 27.9622 49.6338 28.5645C49.3896 29.1667 49.0397 29.6956 48.584 30.1514L31.0791 47.6562L21.875 49.9512L24.1699 40.7471L41.6748 23.2666C42.1468 22.7946 42.6758 22.4447 43.2617 22.2168C43.8477 21.9889 44.4661 21.875 45.1172 21.875ZM46.3623 27.9541C46.7041 27.6123 46.875 27.1973 46.875 26.709C46.875 26.2044 46.7122 25.7975 46.3867 25.4883C46.0612 25.179 45.638 25.0163 45.1172 25C44.8893 25 44.6696 25.0326 44.458 25.0977C44.2464 25.1628 44.0592 25.2848 43.8965 25.4639L27.002 42.3584L26.1719 45.6543L29.4678 44.8242L46.3623 27.9541Z" fill="currentColor"/>
    </g>
</svg>
