<?xml version="1.0" encoding="UTF-8"?>
<svg viewBox="0 0 22 25" xmlns="http://www.w3.org/2000/svg">
  <g fill="none" fill-rule="evenodd">
    <path d="M14.334 12.482c-1.002.409-2.505.756-4.509 1.043-1.135.163-1.938.347-2.408.551a2.402 2.402 0 0 0-1.089.898 2.359 2.359 0 0 0-.383 1.311c0 .736.278 1.35.836 1.84.557.492 1.372.737 2.446.737 1.063 0 2.009-.233 2.837-.698.828-.465 1.436-1.101 1.825-1.91.297-.623.445-1.543.445-2.76v-1.012zm.23 6.165c-1.022.87-2.007 1.483-2.952 1.84a8.544 8.544 0 0 1-3.044.538c-1.79 0-3.166-.438-4.126-1.312C3.48 18.84 3 17.723 3 16.363c0-.799.181-1.527.545-2.187A4.503 4.503 0 0 1 4.97 12.59c.588-.399 1.25-.7 1.986-.905.542-.143 1.36-.281 2.454-.414 2.23-.265 3.87-.583 4.923-.95.01-.38.015-.62.015-.722 0-1.124-.26-1.917-.781-2.377-.706-.624-1.754-.936-3.145-.936-1.299 0-2.257.228-2.876.683-.619.455-1.076 1.26-1.372 2.415l-2.7-.367c.246-1.156.65-2.09 1.212-2.8.562-.71 1.375-1.257 2.438-1.64C8.19 4.191 9.421 4 10.822 4c1.39 0 2.52.164 3.39.491.868.327 1.507.739 1.917 1.234.408.497.695 1.123.859 1.88.092.47.137 1.319.137 2.545v3.682c0 2.566.059 4.19.177 4.869.117.68.35 1.332.698 1.955h-2.883c-.287-.572-.47-1.242-.553-2.009z" fill="currentColor"/>
    <path d="M1 8.025c.344-1.618.909-2.925 1.697-3.921.787-.995 1.926-1.762 3.416-2.299C7.603 1.268 9.328 1 11.291 1c1.947 0 3.53.229 4.748.687 1.217.459 2.112 1.035 2.686 1.73.572.694.973 1.572 1.203 2.631.129.66.193 1.848.193 3.567v5.156c0 3.595.082 5.869.247 6.821a8.55 8.55 0 0 0 .978 2.74h-4.039" stroke="currentColor"/>
  </g>
</svg>
